<svg width="27" height="27" viewBox="0 0 27 27" fill="none" xmlns="http://www.w3.org/2000/svg">
<path d="M15.0454 0.487629C18.3058 1.83825 19.8541 5.57626 18.5037 8.83697C17.1531 12.0973 13.4151 13.6457 10.1544 12.2951C6.894 10.9447 5.34566 7.2067 6.69623 3.94633C8.04663 0.685792 11.7846 -0.862368 15.045 0.488029" fill="white"/>
<path d="M0.00308286 25.8739C-0.0185611 26.1633 0.0744868 26.449 0.259369 26.6627C0.444251 26.8764 0.704587 26.9985 0.977657 27H25.1222C25.3955 26.9985 25.6556 26.8764 25.8405 26.6627C26.0256 26.449 26.1184 26.1633 26.097 25.8739C25.7023 19.9408 22.0813 15.3 13.0501 15.3C4.01859 15.3 0.397377 19.9404 0.00330528 25.8739H0.00308286Z" fill="white"/>
</svg>
