<svg width="44" height="44" viewBox="0 0 44 44" fill="none" xmlns="http://www.w3.org/2000/svg">
<path d="M17.6135 17.4331C17.6135 15.3574 16.2089 15.3574 16.2089 15.3574H15.4652H10.4301V19.8112H15.8507C16.7874 19.8108 17.6135 19.5096 17.6135 17.4331Z" fill="#EFEFEF"/>
<path d="M16.2093 22.8873H10.4301V28.2216H15.9424C16.7717 28.1977 18.3021 27.9366 18.3021 25.6287C18.3021 22.8594 16.2093 22.8873 16.2093 22.8873Z" fill="#EFEFEF"/>
<path d="M31.0042 19.8112C27.9375 19.8112 27.5099 22.8873 27.5099 22.8873H34.0315C34.0319 22.8873 34.0709 19.8112 31.0042 19.8112Z" fill="#EFEFEF"/>
<path d="M21.8842 0C9.79787 0 0 9.85015 0 22C0 34.1499 9.79787 44 21.8842 44C33.9706 44 43.7685 34.1499 43.7685 22C43.7685 9.85015 33.9706 0 21.8842 0ZM26.6556 12.9853H34.8469V15.443H26.6556V12.9853ZM22.5156 25.8761C22.5156 31.9676 16.2093 31.7673 16.2093 31.7673H10.4301H10.2604H5.87818V11.8096H10.2604H10.4301H16.2089C19.3486 11.8096 21.8269 13.552 21.8269 17.1233C21.8269 20.6951 18.7974 20.9215 18.7974 20.9215C22.791 20.9215 22.5156 25.8761 22.5156 25.8761ZM31.0432 29.0238C34.3431 29.0238 34.2263 26.8767 34.2263 26.8767H37.7201C37.7201 32.5749 30.9267 32.1846 30.9267 32.1846C22.7744 32.1846 23.2987 24.5549 23.2987 24.5549C23.2987 24.5549 23.2924 16.8874 30.9258 16.8874C38.9618 16.8874 37.8366 25.5502 37.8366 25.5502H27.5493C27.5493 29.2588 31.0432 29.0238 31.0432 29.0238Z" fill="#EFEFEF"/>
</svg>
