<svg width="29" height="25" viewBox="0 0 29 25" fill="none" xmlns="http://www.w3.org/2000/svg">
<path d="M20.3701 18.9815C20.3703 19.4728 20.1752 19.9438 19.8278 20.2913C19.4805 20.6385 19.0093 20.8336 18.5182 20.8334H10.1851C9.69429 20.8327 9.22355 20.6376 8.87629 20.2903C8.5293 19.9431 8.33396 19.4726 8.33325 18.9815H2.31479C1.49042 18.9827 0.684259 18.7377 0 18.2778V22.6852C0.000236189 23.2991 0.244238 23.8877 0.678152 24.3218C1.1123 24.7557 1.70091 24.9997 2.31479 25H26.3884C27.0025 25.0007 27.5916 24.7569 28.0258 24.3225C28.4601 23.8884 28.7037 23.2993 28.7032 22.6852V18.2778C28.0189 18.7377 27.2128 18.9826 26.3884 18.9815L20.3701 18.9815Z" fill="white"/>
<path d="M10.1872 15.2773H18.5203V18.981H10.1872V15.2773Z" fill="white"/>
<path d="M26.3885 4.63004H20.3719V4.62957L20.3722 2.7796C20.3712 2.04262 20.0781 1.33617 19.5571 0.815112C19.036 0.293809 18.3295 0.000665151 17.5926 0H11.1152C10.3782 0.000708567 9.67178 0.293839 9.15048 0.81493C8.62941 1.33623 8.33628 2.04274 8.33555 2.77966V4.62987L2.31497 4.63011C1.70109 4.63034 1.11244 4.87435 0.678335 5.3085C0.244427 5.74241 0.000424978 6.33102 0.000183105 6.94489V14.8154C0.000419294 15.4293 0.244421 16.018 0.678335 16.4521C1.11248 16.886 1.70109 17.13 2.31497 17.1302H8.33343V15.2784C8.33414 14.7876 8.52948 14.3168 8.87647 13.9696C9.22369 13.6226 9.69442 13.4272 10.1853 13.4265H18.5184C19.0095 13.4265 19.4807 13.6214 19.8279 13.9688C20.1754 14.3161 20.3705 14.7873 20.3703 15.2783V17.1302H26.3887C27.0028 17.1309 27.5919 16.8871 28.0261 16.4528C28.4605 16.0186 28.704 15.4295 28.7035 14.8154V6.94485C28.704 6.33073 28.4605 5.74165 28.0261 5.30749C27.5919 4.87335 27.0028 4.62958 26.3887 4.63007L26.3885 4.63004ZM10.1867 4.63004V4.62957L10.1869 2.7796C10.1871 2.53372 10.2849 2.29774 10.459 2.12389C10.6329 1.9498 10.8688 1.85202 11.1147 1.85178H17.5921C17.838 1.85202 18.0739 1.95004 18.2478 2.12389C18.4217 2.29797 18.5197 2.5337 18.5199 2.7796V4.62981L10.1867 4.63004Z" fill="white"/>
</svg>
