<svg width="30" height="29" viewBox="0 0 30 29" fill="none" xmlns="http://www.w3.org/2000/svg">
<g clip-path="url(#clip0_2_3)">
<path d="M16.8397 5.23343H20.1302L16.8397 1.52002V5.23343Z" fill="white"/>
<path d="M28.3484 29.0002L23.5719 24.2301L24.8566 22.9473L29.633 27.7174L28.3484 29.0002Z" fill="white"/>
<path d="M20.4659 15.1011C17.4992 15.1011 15.0856 17.5112 15.0856 20.474C15.0856 23.4367 17.4992 25.847 20.4659 25.847C23.4326 25.847 25.8461 23.4368 25.8461 20.474C25.8461 17.5112 23.4326 15.1011 20.4659 15.1011Z" fill="white"/>
<path d="M4.82092 4.53613H10.6905V9.56019H4.82092V4.53613Z" fill="white"/>
<path d="M20.4694 13.2867C20.7266 13.2867 20.962 13.3003 21.2415 13.3276V6.97816H15.9596C15.4581 6.97816 15.0926 6.61996 15.0926 6.11906V0H0.63321C0.283601 0 0 0.283572 0 0.63321V28.1157C0 28.4653 0.283572 28.7489 0.63321 28.7489H20.6084C20.9567 28.7489 21.2416 28.464 21.2416 28.1157V27.6198C20.9621 27.6469 20.727 27.6607 20.4696 27.6607C16.5011 27.6607 13.2726 24.4365 13.2726 20.4736C13.2726 16.5108 16.5012 13.2864 20.4696 13.2864L20.4694 13.2867ZM12.1581 26.0279H3.07441V24.2136H12.1581V26.0279ZM3.07441 21.1433V19.3291H12.018V21.1433H3.07441ZM12.1581 16.2588H3.07441V14.4447H12.1581V16.2588ZM12.5074 10.4674C12.5074 10.9683 12.1008 11.3744 11.5991 11.3744L3.91291 11.3747C3.41134 11.3747 3.00454 10.9685 3.00454 10.4676V3.62957C3.00454 3.12869 3.41114 2.72254 3.91291 2.72254H11.5991C12.1006 2.72254 12.5074 3.12868 12.5074 3.62957V10.4674Z" fill="white"/>
</g>
<defs>
<clipPath id="clip0_2_3">
<rect width="30" height="29" fill="white"/>
</clipPath>
</defs>
</svg>
