<svg width="44" height="44" viewBox="0 0 44 44" fill="none" xmlns="http://www.w3.org/2000/svg">
<g clip-path="url(#clip0_2_8)">
<mask id="mask0_2_8" style="mask-type:alpha" maskUnits="userSpaceOnUse" x="-5" y="-5" width="54" height="54">
<path d="M20.7737 17.4662C17.581 18.4045 13.7763 18.8882 9.373 18.9197C10.2843 15.1982 12.7885 12.1023 16.1297 10.4058C17.878 12.6918 19.4237 15.0475 20.7737 17.4662ZM22.945 21.8087C22.666 21.1787 22.3735 20.551 22.0653 19.93C18.4158 21.0775 14.053 21.6603 9.00625 21.667L8.98825 22C8.98825 25.159 10.1223 28.057 12.0033 30.3137C14.8518 26.0365 18.508 23.1947 22.945 21.8087ZM14.0125 32.251C17.5427 35.0072 22.2723 35.8263 26.6665 34.132C26.0995 30.784 25.204 27.517 23.989 24.34C19.8962 25.5595 16.5977 28.1965 14.0125 32.251ZM29.9312 11.7085C27.733 10.012 24.988 8.98825 22 8.98825C20.8975 8.98825 19.831 9.14125 18.8095 9.40225C20.5285 11.7153 22.0517 14.0957 23.3882 16.5392C26.1692 15.3602 28.3472 13.7493 29.9312 11.7085ZM49 22C49 36.9107 36.9107 49 22 49C7.08925 49 -5 36.9107 -5 22C-5 7.08925 7.08925 -5 22 -5C36.9107 -5 49 7.08925 49 22ZM37.75 22C37.75 13.3015 30.6963 6.25 22 6.25C13.3037 6.25 6.25 13.3015 6.25 22C6.25 30.6985 13.3037 37.75 22 37.75C30.6963 37.75 37.75 30.6985 37.75 22ZM24.646 18.9648C24.9992 19.6938 25.3323 20.4295 25.6518 21.1697C28.4868 20.6815 31.594 20.7108 34.9735 21.2643C34.8093 18.3573 33.7 15.6978 31.927 13.6075C30.1113 15.8688 27.6745 17.653 24.646 18.9648V18.9648ZM26.7025 23.7617C27.8028 26.707 28.6487 29.7265 29.2202 32.8135C32.1722 30.8335 34.2625 27.6745 34.8385 24.0183C31.8752 23.5053 29.164 23.4152 26.7025 23.7617V23.7617Z" fill="black"/>
</mask>
<g mask="url(#mask0_2_8)">
<circle cx="22" cy="22" r="22" fill="#EFEFEF"/>
</g>
</g>
<defs>
<clipPath id="clip0_2_8">
<rect width="44" height="44" fill="white"/>
</clipPath>
</defs>
</svg>
