<svg width="31" height="29" viewBox="0 0 31 29" fill="none" xmlns="http://www.w3.org/2000/svg">
<path d="M18.2552 15.6363C19.1 18.2264 19.1025 20.7083 18.2619 23.0188H15.3668C15.3498 23.0188 15.3329 23.0185 15.3162 23.0185C15.299 23.0185 15.2821 23.0188 15.2649 23.0188H12.9067C13.7684 20.5175 13.7703 18.0374 12.9116 15.6363H13.1498C14.6128 15.6786 16.0135 15.6786 17.479 15.6363H18.2552ZM2.14311 23.8555C1.80603 23.8858 1.47182 23.7331 1.26889 23.4567C-0.422965 21.1517 -0.422965 17.5405 1.26889 15.2352C1.47186 14.9587 1.80582 14.8063 2.14311 14.8364C6.43715 15.2443 9.55355 15.5019 12.3636 15.6099C13.2808 18.0329 13.2773 20.544 12.3507 23.0785C9.54046 23.1877 6.43684 23.4475 2.14331 23.8554L2.14311 23.8555ZM18.2598 28.9961L15.6293 27.2844C15.5879 27.2572 15.5404 27.2439 15.493 27.2439C15.4446 27.2439 15.3963 27.2577 15.3542 27.2857L12.8008 28.9896V23.5667C14.6506 23.505 16.3855 23.5101 18.2598 23.5823L18.2598 28.9961ZM29.418 23.5852C29.2333 23.7909 28.9396 23.8967 28.64 23.87C24.5133 23.477 21.4731 23.2192 18.7548 23.0985C19.5907 20.7389 19.5914 18.216 18.7566 15.5899C21.4666 15.4707 24.5056 15.2158 28.6178 14.8244C28.9359 14.797 29.2463 14.9271 29.4561 15.1764C31.529 17.6402 31.5127 21.2551 29.4183 23.5855L29.418 23.5852Z" fill="white"/>
<path d="M24.4531 5.92578V10.9303C24.4531 12.7701 19.6235 13.4199 15.4942 13.4199C11.3597 13.4199 6.53015 12.77 6.53015 10.9303V5.92578C15.5615 8.27017 15.2193 8.22562 15.4891 8.22562C15.8121 8.22562 15.7771 8.17171 24.4531 5.92578Z" fill="white"/>
<path d="M15.4933 2.9939C14.4073 2.9939 13.687 3.36622 13.687 3.61268C13.687 3.85868 14.4073 4.23101 15.4933 4.23101C16.5794 4.23101 17.2997 3.85869 17.2997 3.61268C17.2997 3.36625 16.5794 2.9939 15.4933 2.9939Z" fill="white"/>
<path d="M28.6326 7.7206V3.61101C28.6326 3.58605 28.6277 3.5611 28.6177 3.53593C28.6077 3.49582 28.5827 3.45595 28.5526 3.431C28.5377 3.41607 28.5225 3.40092 28.5025 3.39089C28.4876 3.38087 28.4675 3.37597 28.4475 3.37084C28.4426 3.36594 28.4374 3.36594 28.4274 3.36594L15.5537 0.0111952C15.5087 -0.00373174 15.4686 -0.00373174 15.4238 0.0111952L2.54036 3.37085C2.4303 3.3958 2.35522 3.49583 2.35522 3.61079C2.35522 3.72575 2.4303 3.82578 2.54036 3.85073L15.4238 7.21529C15.4438 7.22019 15.4688 7.22531 15.4886 7.22531C15.5087 7.22531 15.5287 7.22041 15.5537 7.21529L28.1325 3.93069V7.72032C27.5177 7.84041 27.0478 8.38511 27.0478 9.03524V10.6451C27.0478 10.7802 27.1578 10.8951 27.2977 10.8951H29.4675C29.6076 10.8951 29.7174 10.7802 29.7174 10.6451L29.7177 9.03524C29.7177 8.38534 29.2478 7.84044 28.6327 7.72055L28.6326 7.7206ZM15.4931 4.73053C14.3751 4.73053 13.187 4.33842 13.187 3.61238C13.187 2.88587 14.3751 2.49377 15.4931 2.49377C16.6111 2.49377 17.7992 2.88587 17.7992 3.61238C17.7992 4.33842 16.6111 4.73053 15.4931 4.73053Z" fill="white"/>
</svg>
