<svg width="100" height="100" viewBox="0 0 100 100" fill="none" xmlns="http://www.w3.org/2000/svg">
<g clip-path="url(#clip0_1_16)">
<path d="M55.5 112.5L-18.5 8L-12.5 -21L130.5 95L55.5 112.5Z" fill="white"/>
<path d="M73.416 79C74.568 79 75 78.28 74.496 77.344L61.464 48.256L73.704 23.128C74.208 22.12 73.776 21.4 72.696 21.4H65.136C64.344 21.4 63.84 21.76 63.48 22.48L52.392 45.16V22.84C52.392 21.904 51.888 21.4 50.952 21.4H44.04C43.104 21.4 42.6 21.904 42.6 22.84V77.56C42.6 78.496 43.104 79 44.04 79H50.952C51.888 79 52.392 78.496 52.392 77.56V61.648L55.056 56.536L64.128 77.92C64.416 78.64 64.92 79 65.784 79H73.416Z" fill="#D3D3D3"/>
<path d="M65.416 79C66.568 79 67 78.28 66.496 77.344L53.464 48.256L65.704 23.128C66.208 22.12 65.776 21.4 64.696 21.4H57.136C56.344 21.4 55.84 21.76 55.48 22.48L44.392 45.16V22.84C44.392 21.904 43.888 21.4 42.952 21.4H36.04C35.104 21.4 34.6 21.904 34.6 22.84V77.56C34.6 78.496 35.104 79 36.04 79H42.952C43.888 79 44.392 78.496 44.392 77.56V61.648L47.056 56.536L56.128 77.92C56.416 78.64 56.92 79 57.784 79H65.416Z" fill="black"/>
</g>
<defs>
<clipPath id="clip0_1_16">
<rect width="100" height="100" fill="white"/>
</clipPath>
</defs>
</svg>