<svg width="27" height="29" viewBox="0 0 27 29" fill="none" xmlns="http://www.w3.org/2000/svg">
<path d="M26.6762 12.9882L14.3654 0.360783C14.1354 0.129658 13.826 0 13.5036 0C13.1816 0 12.8722 0.129658 12.6419 0.360783L0.331125 12.9882C0.118437 13.2219 4.79506e-07 13.5294 4.79506e-07 13.849C-0.000274367 14.1687 0.117614 14.4765 0.329753 14.7104C0.542167 14.9444 0.832898 15.087 1.14367 15.1098H2.64573V27.7373C2.64573 28.0721 2.77543 28.3931 3.00625 28.6302C3.23708 28.867 3.55007 29 3.8768 29H10.7708V20.5266C10.7708 20.1918 10.9005 19.8705 11.1314 19.6337C11.3622 19.3969 11.6752 19.2639 12.0019 19.2639H14.9813H14.981C15.3074 19.2639 15.6207 19.3969 15.8515 19.6337C16.0824 19.8705 16.2121 20.1918 16.2121 20.5266V28.987H23.1061C23.4325 28.987 23.7458 28.854 23.9766 28.6172C24.2075 28.3804 24.3372 28.0591 24.3372 27.7243V15.0969H25.9008C26.2041 15.0633 26.4844 14.9153 26.6875 14.6819C26.8906 14.4483 27.0019 14.1456 27 13.8327C26.9978 13.5198 26.8826 13.2188 26.6763 12.9879L26.6762 12.9882Z" fill="white"/>
</svg>
