<svg width="44" height="44" viewBox="0 0 44 44" fill="none" xmlns="http://www.w3.org/2000/svg">
<path d="M26.073 22.0004C26.073 24.326 24.1977 26.2112 21.8842 26.2112C19.5708 26.2112 17.6954 24.326 17.6954 22.0004C17.6954 19.6747 19.5708 17.7895 21.8842 17.7895C24.1977 17.7895 26.073 19.6747 26.073 22.0004Z" fill="#EAEAEA"/>
<path d="M31.6802 14.5499C31.4788 14.0014 31.1576 13.5049 30.7402 13.0973C30.3348 12.6777 29.8413 12.3548 29.2953 12.1524C28.8525 11.9795 28.1873 11.7737 26.9621 11.7177C25.6368 11.6569 25.2394 11.6438 21.8841 11.6438C18.5285 11.6438 18.1311 11.6566 16.8061 11.7173C15.5809 11.7737 14.9154 11.9795 14.473 12.1524C13.927 12.3548 13.4331 12.6777 13.0281 13.0973C12.6106 13.5049 12.2894 14.001 12.0877 14.5499C11.9157 14.995 11.711 15.664 11.6553 16.8957C11.5948 18.2277 11.5818 18.6272 11.5818 22.0005C11.5818 25.3735 11.5948 25.773 11.6553 27.1054C11.711 28.337 11.9157 29.0057 12.0877 29.4508C12.2894 29.9997 12.6103 30.4958 13.0277 30.9034C13.4331 31.323 13.9267 31.6459 14.4726 31.8483C14.9154 32.0215 15.5809 32.2273 16.8061 32.2834C18.1311 32.3441 18.5282 32.3569 21.8838 32.3569C25.2397 32.3569 25.6371 32.3441 26.9618 32.2834C28.187 32.2273 28.8525 32.0215 29.2953 31.8483C30.3912 31.4233 31.2574 30.5526 31.6802 29.4508C31.8522 29.0057 32.0569 28.337 32.113 27.1054C32.1734 25.773 32.1861 25.3735 32.1861 22.0005C32.1861 18.6272 32.1734 18.2277 32.113 16.8957C32.0572 15.664 31.8525 14.995 31.6802 14.5499ZM21.8841 28.4871C18.3201 28.4871 15.431 25.583 15.431 22.0002C15.431 18.4174 18.3201 15.5133 21.8841 15.5133C25.4478 15.5133 28.3369 18.4174 28.3369 22.0002C28.3369 25.583 25.4478 28.4871 21.8841 28.4871ZM28.592 16.7728C27.7592 16.7728 27.084 16.094 27.084 15.2568C27.084 14.4196 27.7592 13.7409 28.592 13.7409C29.4249 13.7409 30.1001 14.4196 30.1001 15.2568C30.0997 16.094 29.4249 16.7728 28.592 16.7728Z" fill="#EAEAEA"/>
<path d="M21.8842 0C9.79976 0 0 9.85159 0 22C0 34.1484 9.79976 44 21.8842 44C33.9687 44 43.7685 34.1484 43.7685 22C43.7685 9.85159 33.9687 0 21.8842 0ZM34.3748 27.2083C34.314 28.5531 34.1013 29.4712 33.7907 30.2748C33.1379 31.9718 31.8035 33.3132 30.1155 33.9695C29.3165 34.2817 28.4028 34.4952 27.0655 34.5566C25.7254 34.618 25.2973 34.6328 21.8846 34.6328C18.4715 34.6328 18.0437 34.618 16.7034 34.5566C15.366 34.4952 14.4524 34.2817 13.6533 33.9695C12.8144 33.6523 12.0551 33.1551 11.4273 32.5122C10.7882 31.8815 10.2936 31.1178 9.97807 30.2748C9.66752 29.4715 9.45481 28.5531 9.39403 27.2086C9.33226 25.8611 9.3179 25.4308 9.3179 22C9.3179 18.5692 9.33226 18.1389 9.3937 16.7917C9.45447 15.4469 9.66685 14.5288 9.9774 13.7252C10.293 12.8822 10.7878 12.1185 11.4273 11.4878C12.0548 10.8449 12.8144 10.3477 13.6529 10.0305C14.4524 9.71832 15.3657 9.50482 16.7034 9.44339C18.0434 9.38196 18.4715 9.36719 21.8842 9.36719C25.297 9.36719 25.7251 9.38196 27.0651 9.44373C28.4028 9.50482 29.3161 9.71832 30.1155 10.0302C30.954 10.3474 31.7137 10.8449 32.3415 11.4878C32.9806 12.1189 33.4755 12.8822 33.7907 13.7252C34.1016 14.5288 34.314 15.4469 34.3751 16.7917C34.4362 18.1389 34.4506 18.5692 34.4506 22C34.4506 25.4308 34.4362 25.8611 34.3748 27.2083Z" fill="#EFEFEF"/>
</svg>
