<svg width="32" height="22" viewBox="0 0 32 22" fill="none" xmlns="http://www.w3.org/2000/svg">
<path fill-rule="evenodd" clip-rule="evenodd" d="M3.71184 0H28.2857C29.3664 0 30.3429 0.411981 31.0233 1.06607L18.8456 12.4143C18.4615 12.7729 18.0288 13.0425 17.5547 13.2223C17.0827 13.4022 16.5621 13.492 15.998 13.492C15.4339 13.492 14.9133 13.4011 14.4413 13.2223C13.9672 13.0425 13.5354 12.7721 13.1504 12.4143L0.97267 1.06607C1.65292 0.411965 2.62952 0 3.71028 0H3.71184ZM31.819 2.26393C31.9363 2.58073 32 2.91882 32 3.26955V18.0647C32 18.6101 31.8463 19.1245 31.5743 19.5785L22.8848 10.5902L31.819 2.26393ZM30.5998 20.6161C29.964 21.0648 29.1592 21.3333 28.2869 21.3333H3.71305C2.84055 21.3333 2.03598 21.0645 1.40014 20.6161L10.1564 11.559L12.0528 13.3263C12.5836 13.821 13.1841 14.1958 13.8463 14.4467C14.5105 14.6986 15.2312 14.8258 16.0005 14.8258C16.7698 14.8258 17.4905 14.6986 18.1547 14.4467C18.8169 14.1957 19.4174 13.8212 19.9482 13.3263L21.8446 11.559L30.6009 20.6161H30.5998ZM0.424499 19.5776C0.153488 19.1247 0 18.6094 0 18.0638V3.26865C0 2.91791 0.0636989 2.58065 0.180987 2.26303L9.1154 10.5892L0.425889 19.5775L0.424499 19.5776Z" fill="#B0B0B0"/>
</svg>
