<svg width="20" height="13" viewBox="0 0 20 13" fill="none" xmlns="http://www.w3.org/2000/svg">
<path d="M1.07391 7.57388H13.9608C14.554 7.57388 15.0347 7.09312 15.0347 6.49997C15.0347 5.90681 14.554 5.42606 13.9608 5.42606H1.07391C0.480754 5.42606 0 5.90681 0 6.49997C0 7.09312 0.480754 7.57388 1.07391 7.57388Z" fill="white"/>
<path d="M1.07391 13H18.2565C18.8496 13 19.3304 12.5192 19.3304 11.9261C19.3304 11.3329 18.8496 10.8522 18.2565 10.8522H1.07391C0.480754 10.8522 0 11.3329 0 11.9261C0 12.5192 0.480754 13 1.07391 13Z" fill="white"/>
<path d="M18.2565 0H1.07391C0.480754 0 0 0.480754 0 1.07391C0 1.66707 0.480754 2.14782 1.07391 2.14782H18.2565C18.8496 2.14782 19.3304 1.66707 19.3304 1.07391C19.3304 0.480754 18.8496 0 18.2565 0Z" fill="white"/>
</svg>
