<svg width="21" height="40" viewBox="0 0 21 40" fill="none" xmlns="http://www.w3.org/2000/svg">
<path d="M10.4865 0C5.44825 6.26048 3.77132 10.0373 3.7795 18.4853C3.79151 21.0227 5.0542 23.9248 6.6934 26.4735C9.8686 26.5222 10.8196 26.4296 14.2924 26.4475C15.9621 23.8854 17.228 21.0138 17.2191 18.4989C17.2845 10.0307 15.9855 6.24468 10.4862 0.000925399L10.4865 0ZM10.4996 9.19651C11.8813 9.19651 13.0198 10.3358 13.0198 11.719C13.0198 13.1021 11.8816 14.2415 10.4996 14.2415C9.11798 14.2415 7.97948 13.1021 7.97948 11.719C7.97948 10.3359 9.11768 9.19651 10.4996 9.19651ZM10.4996 10.8782C10.0256 10.8782 9.65971 11.2447 9.65971 11.719C9.65971 12.1936 10.0256 12.5598 10.4996 12.5598C10.9736 12.5598 11.3396 12.1936 11.3396 11.719C11.3396 11.2447 10.9736 10.8782 10.4996 10.8782ZM10.4996 15.9231C11.8813 15.9231 13.0198 17.0624 13.0198 18.4456C13.0198 19.8287 11.8816 20.9681 10.4996 20.9681C9.11798 20.9681 7.97948 19.8287 7.97948 18.4456C7.97948 17.0625 9.11768 15.9231 10.4996 15.9231ZM10.4996 17.6048C10.0256 17.6048 9.65971 17.9713 9.65971 18.4456C9.65971 18.9202 10.0256 19.2864 10.4996 19.2864C10.9736 19.2864 11.3396 18.9202 11.3396 18.4456C11.3396 17.9713 10.9736 17.6048 10.4996 17.6048ZM2.95313 18.8003L0 21.4412L0.0131836 31.4919L3.36006 27.2747L5.84061 26.6703C4.28586 24.2008 3.05451 21.4358 2.95311 18.8005L2.95313 18.8003ZM18.0469 18.8003C17.9652 21.423 16.7294 24.1757 15.1462 26.6566L17.6399 27.2742L20.9868 31.4914L21 21.4407L18.0469 18.8003ZM6.37913 27.2484C5.1393 32.2789 6.19573 34.4241 10.4479 39.4801C15.2365 34.3904 15.8699 32.3156 14.4642 27.2746C14.4027 27.284 14.3344 27.3095 14.2805 27.3133C10.9198 27.3086 9.66772 27.3016 6.71827 27.3133C6.61485 27.3092 6.47481 27.2901 6.3793 27.25L6.37913 27.2484Z" fill="white"/>
</svg>
