<svg width="14" height="12" viewBox="0 0 14 12" fill="none" xmlns="http://www.w3.org/2000/svg">
<path fill-rule="evenodd" clip-rule="evenodd" d="M0.209569 1.26904L5.06964 5.98439L0.209569 10.7313C-0.457418 11.3643 0.622444 12.4403 1.28958 11.8074L6.8165 6.42725C7.03889 6.20568 7.07061 5.79432 6.84822 5.57275L1.28959 0.192637C0.622607 -0.440291 -0.45741 0.635769 0.209577 1.26866L0.209569 1.26904Z" fill="#EAEAEA"/>
<path fill-rule="evenodd" clip-rule="evenodd" d="M7.20957 1.26904L12.0696 5.98439L7.20957 10.7313C6.54258 11.3643 7.62244 12.4403 8.28958 11.8074L13.8165 6.42725C14.0389 6.20568 14.0706 5.79432 13.8482 5.57275L8.28959 0.192637C7.62261 -0.440291 6.54259 0.635769 7.20958 1.26866L7.20957 1.26904Z" fill="#EAEAEA"/>
</svg>
