<svg width="23" height="41" viewBox="0 0 23 41" fill="none" xmlns="http://www.w3.org/2000/svg">
<path d="M7.72967 6.43538L1.07666 0.173664C0.819681 -0.0679174 0.415238 -0.0562202 0.173672 0.201045C-0.0681937 0.458025 -0.055927 0.862183 0.201053 1.10403L6.83807 7.35093C6.89711 7.27706 7.72967 6.43538 7.72967 6.43538Z" fill="white"/>
<path d="M22.8265 0.211569C22.5846 -0.0454112 22.1802 -0.0582474 21.9235 0.183902L15.2722 6.43736C15.2722 6.43736 16.1039 7.27873 16.1635 7.35321L22.7988 1.11486C23.0558 0.872992 23.0683 0.468548 22.8265 0.211575L22.8265 0.211569Z" fill="white"/>
<path d="M7.93117 9.84831L10.5963 12.5134C10.8447 12.7618 11.1724 12.8859 11.4998 12.8859C11.8273 12.8859 12.155 12.7618 12.4034 12.5134L15.0685 9.84831C15.5653 9.35146 15.5653 8.53804 15.0685 8.04117L12.4034 5.37608C12.155 5.12766 11.8273 5.0033 11.4998 5.0033C11.1724 5.0033 10.8447 5.12765 10.5963 5.37608L7.93117 8.04117C7.43432 8.53802 7.43432 9.35144 7.93117 9.84831Z" fill="white"/>
<path d="M19.1326 30.0826L15.2967 11.4277L13.3076 13.4168C12.8259 13.8986 12.1841 14.1636 11.5005 14.1636C10.8168 14.1636 10.1751 13.8983 9.69332 13.4168L7.62718 11.3507L3.86313 29.9202C3.74248 30.6132 4.00346 31.6178 4.44612 32.1637L10.7192 40.4788C10.9411 40.7526 11.2335 40.8898 11.5255 40.8898C11.8159 40.8898 12.1062 40.7546 12.3284 40.4842L18.5622 32.3181C19.0085 31.775 19.2641 30.7745 19.1326 30.0831L19.1326 30.0826ZM6.38912 22.781L17.2503 25.7807L17.2551 27.1526C17.2537 27.1526 17.252 27.1534 17.2505 27.1534C17.1924 27.1534 6.37918 24.0437 6.37918 24.0437L6.38912 22.781ZM5.68035 27.4229L5.75023 26.1851C5.76563 26.1888 17.8892 30.0384 17.8892 30.0384L17.8894 31.3064L5.68035 27.4229Z" fill="white"/>
</svg>
