<svg width="27" height="25" viewBox="0 0 27 25" fill="none" xmlns="http://www.w3.org/2000/svg">
<path d="M14.1341 20.6301L23.3469 25V20.6301H14.1341ZM2.67029e-05 3.34638V17.2836C2.67029e-05 19.134 1.49619 20.6303 3.34668 20.6303L23.347 20.6305C25.1974 20.6305 26.6937 19.1344 26.6937 17.2839V3.34665C26.6937 1.49623 25.1975 0 23.347 0H3.38605C1.49661 0.000274681 0.000450134 1.49644 0.000450134 3.34665L2.67029e-05 3.34638ZM12.953 14.3308C12.953 13.6223 13.5042 13.0708 14.213 13.0708H22.3234C23.0319 13.0708 23.5834 13.622 23.5834 14.3308C23.5834 15.0393 23.0322 15.5908 22.3234 15.5908H14.213C13.5042 15.6301 12.953 15.0394 12.953 14.3308ZM3.11032 7.24408C3.11032 6.53555 3.66149 5.98408 4.37032 5.98408L22.3234 5.98435C23.0319 5.98435 23.5834 6.53553 23.5834 7.24436C23.5834 7.95289 23.0322 8.50436 22.3234 8.50436H4.37032C3.6615 8.54336 3.11032 7.9529 3.11032 7.24407V7.24408Z" fill="white"/>
</svg>
